<svg xmlns:inkscape="http://www.inkscape.org/namespaces/inkscape" xmlns:rdf="http://www.w3.org/1999/02/22-rdf-syntax-ns#" xmlns="http://www.w3.org/2000/svg" xmlns:dc="http://purl.org/dc/elements/1.1/" xmlns:ns1="http://sozi.baierouge.fr" xmlns:cc="http://web.resource.org/cc/" xmlns:xlink="http://www.w3.org/1999/xlink" xmlns:sodipodi="http://sodipodi.sourceforge.net/DTD/sodipodi-0.dtd" xml:space="preserve" version="1.1" width="100" height="100"><rect id="backgroundrect" width="100%" height="100%" x="0" y="0" fill="none" stroke="none"/>


<metadata><rdf:RDF><cc:Work><dc:format>image/svg+xml</dc:format><dc:type rdf:resource="http://purl.org/dc/dcmitype/StillImage"/><cc:license rdf:resource="http://creativecommons.org/licenses/publicdomain/"/><dc:publisher><cc:Agent rdf:about="http://openclipart.org/"><dc:title>Openclipart</dc:title></cc:Agent></dc:publisher></cc:Work><cc:License rdf:about="http://creativecommons.org/licenses/publicdomain/"><cc:permits rdf:resource="http://creativecommons.org/ns#Reproduction"/><cc:permits rdf:resource="http://creativecommons.org/ns#Distribution"/><cc:permits rdf:resource="http://creativecommons.org/ns#DerivativeWorks"/></cc:License></rdf:RDF></metadata><g class="currentLayer" style=""><title>Layer 1</title><path d="m50.88075991431678,55.117689171830605 l-6.288224602580071,-6.280263564944267 c-1.8051652839183807,-1.8021798948049546 -4.205418131113053,-2.7953193398714067 -6.758920952796936,-2.7953193398714067 c-2.551512562274933,0 -4.95276053917408,0.9931394450664518 -6.756930693387985,2.7953193398714067 l-6.288224602580071,6.280263564944267 c-0.09254706251621268,0.09155193281173722 -0.1442938071489336,0.21494801616668727 -0.1442938071489336,0.34531000745296553 c0,0.1293668615818024 0.05174674463272101,0.25276294493675233 0.1442938071489336,0.3443148777484902 l19.11345623385906,19.088577991247174 c0.09155193281173722,0.09155193281173722 0.2169382755756381,0.14329867744445804 0.34630513715744093,0.14329867744445804 c0.13036199128627785,0 0.25375807464122774,-0.05174674463272101 0.3443148777484902,-0.14329867744445804 l6.288224602580071,-6.280263564944267 c1.8051652839183807,-1.80317502450943 2.7992998586893085,-4.1994473528861995 2.7992998586893085,-6.7499647854566565 c0,-2.5485271731615065 -0.9941345747709273,-4.944799501538277 -2.7992998586893085,-6.747974526047706 z" fill="#6bb5ff" id="svg_2" class="" transform="rotate(-180, 39.1621, 60.5406)"/><rect fill="#ff5656" style="color: rgb(0, 0, 0);" stroke-dashoffset="" fill-rule="nonzero" id="svg_3" x="36.6624870300293" y="24.981672286987305" width="47.92384719848633" height="27.979663848876953" class="" transform="rotate(135, 60.6244, 38.9715)"/></g></svg>