<svg xmlns="http://www.w3.org/2000/svg" xml:space="preserve" width="100" height="100">
  <rect width="100%" height="100%" fill="none"/>
  <g class="currentLayer">
    <path d="m27.444 65.962 6.287 6.28a9.504 9.504 0 0 0 6.76 2.796 9.501 9.501 0 0 0 6.756-2.795l6.289-6.28a.484.484 0 0 0 0-.69L34.422 46.184a.491.491 0 0 0-.69 0l-6.289 6.28a9.477 9.477 0 0 0-2.8 6.75 9.476 9.476 0 0 0 2.8 6.748z" fill="#6bb5ff"/>
    <path fill="#ff5656" style="color:#000" transform="rotate(135 60.624 38.971)" d="M36.662 24.982h47.924v27.98H36.662z"/>
  </g>
</svg>
