<svg xmlns="http://www.w3.org/2000/svg" xml:space="preserve" viewBox="0 0 100 100">
  <path d="M69.172 11.265a.491.491 0 0 0-.695 0L11.639 68.029a.488.488 0 0 0 0 .692l19.207 19.184a.494.494 0 0 0 .695 0L88.38 31.14a.486.486 0 0 0 0-.694L69.172 11.265z" fill="gray"/>
  <path d="m96.846 9.12-6.319-6.311A9.55 9.55 0 0 0 83.735 0a9.548 9.548 0 0 0-6.79 2.809L70.626 9.12a.486.486 0 0 0 0 .693l19.207 19.182a.494.494 0 0 0 .694 0l6.319-6.311a9.523 9.523 0 0 0 2.813-6.783 9.522 9.522 0 0 0-2.813-6.781zM10.358 69.967a.486.486 0 0 0-.464-.129.486.486 0 0 0-.351.33L.363 99.363a.49.49 0 0 0 .633.608l28.387-10.012a.488.488 0 0 0 .183-.809L10.358 69.967z" fill="#5f4f6f"/>
</svg>
