<?xml version="1.0" standalone="no"?>
<!DOCTYPE svg PUBLIC "-//W3C//DTD SVG 20010904//EN"
 "http://www.w3.org/TR/2001/REC-SVG-20010904/DTD/svg10.dtd">
<svg version="1.0" xmlns="http://www.w3.org/2000/svg"
 width="1280.000000pt" height="1280.000000pt" viewBox="0 0 1280.000000 1280.000000"
 preserveAspectRatio="xMidYMid meet">
<metadata>
Created by potrace 1.16, written by Peter Selinger 2001-2019
</metadata>
<g transform="translate(0.000000,1280.000000) scale(0.100000,-0.100000)"
fill="#000000" stroke="none">
<path d="M6080 12423 c-398 -27 -643 -59 -965 -129 -1543 -333 -2907 -1275
-3770 -2603 l-97 -150 -624 469 -624 469 0 -2515 c0 -2242 2 -2516 15 -2510 8
3 1085 314 2393 691 2773 800 2412 695 2412 703 0 4 -120 97 -267 207 -147
110 -542 407 -878 660 l-611 460 54 95 c538 942 1465 1616 2524 1834 268 55
428 70 748 71 309 0 405 -7 655 -50 766 -133 1469 -498 2025 -1055 647 -647
1028 -1476 1101 -2395 13 -164 7 -530 -11 -680 -85 -717 -347 -1360 -778
-1913 -525 -675 -1276 -1161 -2095 -1357 -283 -67 -490 -94 -792 -102 -790
-21 -1533 195 -2195 637 -200 134 -358 263 -565 462 l-101 96 -784 -734 c-432
-404 -800 -750 -819 -769 l-35 -34 60 -63 c915 -963 2181 -1610 3513 -1793
468 -64 1034 -72 1501 -20 2221 248 4128 1709 4945 3790 510 1298 552 2749
119 4080 -559 1718 -1885 3112 -3574 3758 -574 219 -1161 346 -1785 387 -143
9 -579 11 -695 3z"/>
</g>
</svg>
