<svg version="1.0" xmlns="http://www.w3.org/2000/svg" width="1706.667" height="1706.667" viewBox="0 0 1280 1280">
  <path d="M608 37.7c-39.8 2.7-64.3 5.9-96.5 12.9-154.3 33.3-290.7 127.5-377 260.3l-9.7 15L62.4 279 0 232.1v251.5c0 224.2.2 251.6 1.5 251 .8-.3 108.5-31.4 239.3-69.1C518.1 585.5 482 596 482 595.2c0-.4-12-9.7-26.7-20.7s-54.2-40.7-87.8-66l-61.1-46 5.4-9.5c53.8-94.2 146.5-161.6 252.4-183.4 26.8-5.5 42.8-7 74.8-7.1 30.9 0 40.5.7 65.5 5C781.1 280.8 851.4 317.3 907 373c64.7 64.7 102.8 147.6 110.1 239.5 1.3 16.4.7 53-1.1 68-8.5 71.7-34.7 136-77.8 191.3-52.5 67.5-127.6 116.1-209.5 135.7-28.3 6.7-49 9.4-79.2 10.2-79 2.1-153.3-19.5-219.5-63.7-20-13.4-35.8-26.3-56.5-46.2l-10.1-9.6-78.4 73.4c-43.2 40.4-80 75-81.9 76.9l-3.5 3.4 6 6.3c91.5 96.3 218.1 161 351.3 179.3 46.8 6.4 103.4 7.2 150.1 2 222.1-24.8 412.8-170.9 494.5-379 51-129.8 55.2-274.9 11.9-408-55.9-171.8-188.5-311.2-357.4-375.8C798.6 54.8 739.9 42.1 677.5 38c-14.3-.9-57.9-1.1-69.5-.3z"/>
</svg>
